<svg id="Layer_1" xmlns="http://www.w3.org/2000/svg" viewBox="-38 41 221.5 140"><style>.st0{fill:#32a5d2}.st1{fill:#1e96bb}.st2{fill:#fff}</style><path class="st0" d="M-32 178c-1.9 0-3.4-1.3-3.4-3V45c0-1.7 1.5-3 3.4-3h211c1.9 0 3.4 1.3 3.4 3v130c0 1.7-1.5 3-3.4 3H-32z"/><path class="st1" d="M179 43c1.2 0 2.2.9 2.2 2v130c0 1.1-1 2-2.2 2H-32c-1.2 0-2.2-.9-2.2-2V45c0-1.1 1-2 2.2-2h211m0-2H-32c-2.5 0-4.5 1.8-4.5 4v130c0 2.2 2 4 4.5 4h211c2.5 0 4.5-1.8 4.5-4V45c0-2.2-2-4-4.5-4z"/><path class="st0" d="M23.8 110.2h-7.7l3.7-7.2 4 7.2z"/><g><path class="st2" d="M-34.2 105.8h10.3l2.3-5.6h5.2l2.3 5.6H6.3v-4.3l1.8 4.3h10.6l1.8-4.4v4.4h50.6v-9.2h1c.7 0 .9.1.9 1.2v8h26.1v-2.2c2.1 1.1 5.4 2.2 9.7 2.2h11l2.4-5.6h5.2l2.3 5.6h21.2v-5.4l3.2 5.4h17V70.5h-16.8v4.2l-2.3-4.2h-17.3v4.2l-2.2-4.2h-23.3c-3.9 0-7.3.5-10.1 2.1v-2.1H83v2.1c-1.8-1.6-4.2-2.1-6.8-2.1H17.5l-4 9.1-4-9.1H-9v4.2l-2.1-4.2h-15.8l-7.3 16.8v18.5zm200-5h-8.6l-11.5-19v19h-12.3l-2.4-5.6h-12.6l-2.3 5.6H109c-3 0-6.7-.7-8.8-2.8-2.2-2.2-3.2-5.1-3.2-9.7 0-3.8.7-7.2 3.3-9.9 2-2 5-3 9.2-3h5.8v5.4h-5.7c-2.2 0-3.5.3-4.7 1.5-1 1.1-1.7 3.1-1.7 5.7 0 2.7.5 4.7 1.7 5.9.9 1 2.6 1.3 4.2 1.3h2.7l8.5-19.9h9.1l10.2 24v-24h9.2l10.6 17.6V75.5h6.2v25.3h.2zm-71.7 0h-6.2V75.5h6.2v25.3zm-9.7-18.5c0 4-2.7 6.1-4.3 6.7 1.3.5 2.4 1.4 3 2.1.9 1.2 1 2.4 1 4.6v5H78v-3.2c0-1.5.2-3.7-1-4.9-.9-.9-2.2-1.1-4.4-1.1h-6.5v9.2h-6V75.5H74c3.1 0 5.4.1 7.3 1.2 2 1.1 3.1 2.8 3.1 5.6zm-28.5 18.5H35.7V75.5h20.2v5.3H41.7v4.5h13.8v5.2H41.7v5.1h14.2v5.2zm-24.7 0H25V81l-8.8 19.8h-5.3L2.1 80.9v19.9h-12.4l-2.3-5.6h-12.6l-2.3 5.6h-6.6l10.8-25.3h9l10.3 24v-24h9.9l7.9 17.2 7.3-17.2h10.1v25.3zM129 89.9l-4.2-10.1-4.1 10.1h8.3zm-52.5-4c-.8.5-1.8.5-3 .5h-7.4v-5.6h7.5c1.1 0 2.2 0 2.9.4.8.4 1.3 1.2 1.3 2.2-.1 1.2-.5 2-1.3 2.5zm-91.3 4l-4.1-10.1-4.1 10.1h8.2zM83.1 127.4c0 7-5.2 8.5-10.5 8.5H65v8.5H53.2l-7.5-8.4-7.7 8.4H14v-25.3h24.5l7.4 8.3 7.7-8.3h19.3c4.8 0 10.2 1.3 10.2 8.3zM35 139.1H20.1v-5h13.3v-5.2H20.1v-4.6h15.2l6.6 7.4-6.9 7.4zm24 3l-9.3-10.3 9.3-10v20.3zm13.9-11.4h-7.8v-6.4H73c2.2 0 3.7.9 3.7 3.1-.1 2.2-1.5 3.3-3.8 3.3zm40.8-11.6h20.2v5.3h-14.2v4.6h13.8v5.2h-13.8v5h14.2v5.3h-20.2v-25.4zm-7.6 13.5c1.3.5 2.4 1.4 3 2.1.9 1.2 1 2.4 1 4.6v5H104v-3.2c0-1.5.1-3.8-1-4.9-.9-.9-2.2-1.1-4.4-1.1h-6.5v9.3H86v-25.3h14c3.1 0 5.3.1 7.3 1.2 1.9 1.1 3.1 2.7 3.1 5.6 0 4-2.7 6.1-4.3 6.7zm-3.7-3.1c-.8.5-1.8.5-3 .5H92v-5.7h7.5c1.1 0 2.2 0 2.9.4.8.4 1.3 1.2 1.3 2.3 0 1.1-.5 2-1.3 2.5zM157 131c1.2 1.2 1.8 2.8 1.8 5.4 0 5.5-3.4 8-9.5 8h-11.8V139h11.8c1.2 0 2-.1 2.5-.6.4-.4.7-.9.7-1.6 0-.7-.3-1.3-.8-1.7s-1.1-.6-2.1-.6c-5.7-.2-12.8.2-12.8-7.8 0-3.7 2.3-7.5 8.6-7.5h12.1v5.4h-11c-1.1 0-1.8 0-2.4.5-.7.4-.9 1-.9 1.8 0 .9.6 1.6 1.3 1.9.6.2 1.3.3 2.3.3l3.3.1c3.3-.1 5.6.5 6.9 1.8zm24.2 10.2c-1.5 2.2-4.3 3.2-8.2 3.2h-11.7V139h11.6c1.1 0 2-.1 2.4-.6.4-.4.7-.9.7-1.6 0-.7-.3-1.3-.7-1.7-.5-.4-1.1-.6-2.1-.6-5.7-.2-12.8.2-12.8-7.8 0-3.7 2.3-7.5 8.7-7.5h12.1v-5H170c-3.4 0-5.8.8-7.6 2.1V114h-16.6c-2.6 0-5.7.7-7.2 2.1V114H109v2.1c-2.4-1.7-6.3-2.1-8.2-2.1H81.3v2.1c-1.9-1.8-6-2.1-8.5-2.1H50.9l-5 5.4-4.7-5.4H8.6v35.4h32l5.2-5.5 4.9 5.5h19.7v-8.3h2c2.6 0 5.7-.1 8.4-1.2v9.5h16.3v-9.2h.8c1 0 1.1.1 1.1 1v8.2h49.5c3.1 0 6.4-.8 8.2-2.3v2.3h15.7c3.3 0 6.4-.5 8.9-1.6l-.1-6.6zm0-16.7h-11.1c-1.1 0-1.8 0-2.4.5-.6.4-.9 1-.9 1.8 0 .9.5 1.6 1.3 1.9.6.2 1.3.3 2.3.3l3.3.1c3.3.1 5.5.7 6.9 2 .2.2.4.4.6.7v-7.3z"/></g></svg>