<svg id="Layer_1" xmlns="http://www.w3.org/2000/svg" viewBox="-38 41.5 221.5 139.5"><style>.st0{fill:#0973b1}.st1{fill:#11678a}.st2{fill:#fff}.st3{fill:#2851a1}.st4{enable-background:new}</style><path class="st0" d="M-32 178.5c-1.9 0-3.4-1.3-3.4-3v-130c0-1.7 1.5-3 3.4-3h211c1.9 0 3.4 1.3 3.4 3v130c0 1.7-1.5 3-3.4 3H-32z"/><path class="st1" d="M179 43.5c1.2 0 2.2.9 2.2 2v130c0 1.1-1 2-2.2 2H-32c-1.2 0-2.2-.9-2.2-2v-130c0-1.1 1-2 2.2-2h211m0-2H-32c-2.5 0-4.5 1.8-4.5 4v130c0 2.2 2 4 4.5 4h211c2.5 0 4.5-1.8 4.5-4v-130c0-2.2-2-4-4.5-4z"/><circle class="st2" cx="62.9" cy="93.3" r="28.7"/><circle class="st2" cx="79.1" cy="93.3" r="28.7"/><path class="st2" d="M62.9 73.5h17.8v34.2H58.3z"/><path class="st3" d="M62.9 113.9c-11.4 0-20.6-9.2-20.6-20.6s9.2-20.6 20.6-20.6 20.6 9.2 20.6 20.6-9.2 20.6-20.6 20.6zm0-35.6c-8.2 0-15 6.7-15 15s6.7 15 15 15c8.2 0 15-6.7 15-15s-6.7-15-15-15z"/><path class="st3" d="M59.4 78h5.7v34.3h-5.7z"/><g class="st4"><path class="st2" d="M12 142.2v-.9-1.3-1.3-.7c0-.3-.1-.5-.2-.5-.1-.1-.3-.1-.5-.1h-1.1c-.1 0-.2-.1-.2-.2v-.7c0-.1.1-.1.2-.1H16.9c.7 0 1.4 0 2.1.1.7 0 1.3.1 1.9.3.6.2 1.2.4 1.7.6.5.3 1.1.6 1.6 1.1.7.6 1.3 1.4 1.8 2.4.4 1 .7 2.1.7 3.5 0 1.3-.2 2.4-.5 3.4s-.9 1.8-1.6 2.7c-.5.6-1.1 1.1-1.8 1.4-.7.3-1.4.6-2 .7-.7.2-1.3.2-1.9.3h-8.5c-.1 0-.2-.1-.2-.2v-.6c0-.1.1-.1.2-.1h1.1c.4 0 .6-.2.7-.6 0-.1 0-.5.1-1.1 0-.6 0-1.3.1-2.1s0-1.6 0-2.3v-3.7zm3.2 2.3v5.6c0 .2 0 .4.1.6.1.2.1.4.3.6.1.2.4.4.7.4.3.1.7.1 1 .1.3 0 .7 0 1-.1.4-.1.7-.2 1.1-.4.4-.2.7-.4 1-.7.3-.3.7-.6.9-1 .4-.6.8-1.4 1.1-2.3.3-.9.4-1.9.4-3 0-.5 0-.9-.1-1.4s-.2-.9-.4-1.4c-.2-.4-.3-.8-.6-1.2s-.4-.7-.7-1c-.3-.3-.6-.6-1-.9-.4-.3-.7-.5-1.1-.7-.4-.2-.8-.3-1.1-.4s-.7-.1-1-.1h-.7c-.2 0-.3.1-.5.1-.2.1-.3.2-.3.4-.1.2-.1.4-.1.6v6.2zM34.6 152.6c0 .2-.1.2-.2.2h-5.5c-.1 0-.2-.1-.2-.2v-.5c0-.1.1-.2.2-.2h.8c.1 0 .2 0 .3-.1.1-.1.1-.2.1-.4v-1-4.2c0-.3-.1-.6-.2-.8-.1-.2-.4-.4-.9-.6-.1 0-.2-.1-.2-.1v-.5c0-.1.1-.1.2-.2l3.2-1.1c.2-.1.4-.1.6-.1.2 0 .2.1.2.3v8.2c0 .4.2.6.4.6h.8c.1 0 .2.1.2.2v.5zm-1.5-13.2c0 .4-.1.7-.4 1-.3.3-.7.5-1.3.5-.4 0-.8-.1-1.1-.4-.3-.3-.4-.6-.4-1.1 0-.4.2-.7.5-1 .3-.3.7-.4 1.2-.4s.9.1 1.1.4c.3.4.4.7.4 1zM40.4 144.1h.2c.1-.2.3-.3.5-.4.2-.1.4-.3.6-.4.2-.1.5-.2.7-.3.3-.1.6-.1.9-.1.4 0 .8 0 1.2.1.4.1.7.3 1 .5.2.2.4.4.5.6l.3.6c.1.2.1.4.1.6v4.5c0 .5 0 .9-.1 1.3 0 .4 0 .6.2.7.1.1.2.1.3.1h.6c.2 0 .2.1.2.2v.4c0 .2-.1.3-.2.3H42.6c-.1 0-.2-.1-.2-.3v-.4c0-.1.1-.2.3-.2h.2c.1 0 .1 0 .2-.1s.1-.2.2-.4c0-.3.1-.6.1-1v-3.9c0-.4 0-.8-.1-1.1-.1-.3-.2-.6-.4-.8-.2-.2-.4-.3-.5-.3-.2 0-.3-.1-.5-.1s-.4 0-.5.1c-.2.1-.3.2-.6.4s-.4.8-.4 1.8v4.7c0 .2 0 .4.1.5s.1.2.2.2h.3c.1 0 .2.1.2.2v.4c0 .1-.1.2-.2.2h-4.5c-.1 0-.2-.1-.2-.2v-.5c0-.1.1-.2.2-.2h.5c.1 0 .2 0 .4-.1.1-.1.2-.2.2-.4v-5.1c0-.4-.1-.6-.2-.8s-.4-.4-.6-.5l-.2-.1c-.1 0-.2-.1-.2-.3v-.2c0-.1.1-.2.2-.2l2.8-1.3c.1 0 .2-.1.2-.1.1 0 .2-.1.2-.1.2 0 .3.1.3.3l.3 1.2zM52.5 147.1v.6c0 .6.1 1.1.2 1.6.2.4.4.8.6 1.1.3.3.6.5.9.7.3.1.7.2 1.1.2.5 0 1-.1 1.4-.4.4-.2.7-.5.9-.9 0-.1.1-.1.2-.1l.4.2.1.1c0 .1 0 .2-.1.4s-.3.5-.5.7l-.8.8c-.3.3-.7.5-1.1.6-.4.2-.9.3-1.4.3-.7 0-1.3-.1-1.9-.2-.6-.2-1-.4-1.4-.9-.3-.3-.5-.6-.7-.9-.2-.3-.3-.6-.5-.9-.1-.3-.2-.6-.3-1s-.1-.8-.1-1.2v-.6c0-.2 0-.5.1-.8l.3-.9c.1-.3.3-.7.6-1.1.4-.6.9-1.1 1.5-1.4.6-.3 1.4-.5 2.2-.5.6 0 1.1.1 1.5.3.4.2.8.4 1 .7.3.3.5.6.6.9.2.3.3.6.4.9s.1.5.2.8v.4c0 .2-.1.2-.2.3h-5.2zm2.1-.9c.5 0 .7-.2.7-.5 0-.5-.1-1-.3-1.4-.2-.4-.4-.6-.8-.6-1 0-1.5.8-1.7 2.4h2.1zM64.4 151.1c0 .4.1.6.2.7.1.1.3.2.5.2h.9c.1 0 .2.1.2.2v.5c0 .1 0 .2-.1.2h-5.8c-.1 0-.1-.1-.1-.2v-.4c0-.1.1-.2.2-.2h.6c.2 0 .3 0 .4-.1.1-.1.2-.2.2-.4v-1.1-3.4c0-.5-.1-.9-.2-1.1-.1-.3-.3-.5-.7-.7l-.4-.2c-.1-.1-.2-.1-.2-.2v-.2c0-.1.1-.1.2-.2l3-1.4c.1 0 .1-.1.2-.1h.2c.1 0 .1 0 .2.1 0 .1.1.1.1.2l.2 1.8h.2c.3-.8.7-1.3 1.2-1.7.5-.4.9-.5 1.4-.5.3 0 .6.1.8.4s.3.6.3 1c0 .2 0 .3-.1.5s-.2.3-.3.4c-.1.1-.3.2-.4.3-.2.1-.3.1-.5.1-.3 0-.6-.1-.8-.2-.2-.1-.3-.2-.5-.2-.1 0-.2 0-.3.1-.1.1-.2.2-.2.3-.1.3-.2.6-.3.8-.1.2-.1.4-.1.6v4.1zM71.3 136.2c.2 0 .5 0 .7.1.2.1.5.2.6.4.2.2.3.4.5.7.1.3.2.6.2 1 0 .6-.1 1.1-.3 1.6-.2.5-.5.9-.8 1.2l-.8.8c-.3.2-.4.3-.5.4-.3.2-.5.2-.6.2s-.2-.1-.2-.2 0-.1.1-.2c0-.1.1-.1.2-.2l.3-.3c.1-.2.3-.4.4-.6.1-.2.2-.5.3-.8.1-.3.1-.6.1-.8 0-.2 0-.3-.1-.4s-.1-.2-.2-.3c0 0-.1-.1-.2-.1s-.2-.1-.4-.2c-.1-.1-.2-.3-.3-.4-.1-.2-.1-.4-.1-.7 0-.4.1-.7.4-.9 0-.2.3-.3.7-.3zM80.6 145.4c0 .1 0 .2-.1.2l-.4.2c-.1 0-.1 0-.2-.1l-1.2-1.4c-.1-.2-.3-.3-.5-.4s-.5-.2-.8-.2c-.3 0-.6.1-.9.3s-.4.5-.4.9c0 .2 0 .4.1.5s.1.3.3.4.3.2.6.3.6.2 1 .3c.3.1.5.1.7.2s.4.1.6.2c.2.1.3.2.5.3.2.1.3.3.5.5.3.3.5.6.6.9.1.3.1.6.1 1 0 .5-.1 1-.3 1.4-.2.4-.4.8-.8 1.1-.3.3-.7.5-1.2.7s-1 .3-1.6.3c-.6 0-1.1-.1-1.6-.3-.5-.2-.8-.3-.9-.4-.1 0-.1-.1-.1-.3l-.3-2.2c0-.1 0-.2.2-.2l.4-.1c.1 0 .1 0 .2.1l.9 1.4c.2.3.4.6.7.8.3.2.7.4 1.2.4.4 0 .7-.1.9-.4.2-.3.3-.6.3-1 0-.5-.2-.8-.5-1-.3-.2-.8-.4-1.5-.7-.8-.2-1.4-.6-1.9-1s-.7-1.1-.7-1.9c0-.5.1-1 .2-1.5.2-.4.5-.8.9-1.2.4-.3.8-.6 1.2-.7.3-.1.7-.2 1.2-.2.6 0 1.1.1 1.4.2.4.1.6.2.8.3.2.1.3.1.3.2s.1.1.1.2v1.9zM97.2 153.1c-.7 0-1.4 0-1.9-.1-.6-.1-1.1-.2-1.5-.4-.5-.2-.9-.4-1.2-.7-.4-.3-.7-.6-1.1-.9-.4-.4-.8-.8-1-1.3-.3-.5-.5-1-.7-1.6s-.3-1.1-.4-1.7c-.1-.6-.1-1.1-.1-1.6 0-1.2.2-2.3.5-3.4.4-1 .9-2 1.7-2.9.6-.7 1.4-1.3 2.3-1.8.9-.5 2.1-.7 3.4-.7 1 0 1.9.1 2.6.3.8.2 1.3.4 1.7.6.2.1.3.1.3.1s.1 0 .1-.1l.2-.6c0-.1.1-.1.1-.1h.3c.2 0 .3 0 .3.1 0 0 .1.1.1.3 0 .1 0 .4.1.9 0 .5.1 1 .1 1.6s.1 1.1.2 1.6.1.8.1 1c0 .2 0 .3-.1.3l-.5.1c-.1 0-.2 0-.3-.3-.1-.5-.3-1-.6-1.5-.3-.6-.7-1.1-1.1-1.6-.5-.5-1-.9-1.6-1.2-.6-.3-1.3-.5-2.1-.5s-1.5.2-2 .5c-.6.4-1 .8-1.4 1.4-.4.6-.6 1.3-.8 2.1-.2.8-.2 1.6-.2 2.4 0 .4 0 .8.1 1.3s.2 1 .3 1.6c.1.6.3 1.1.6 1.6s.6 1 1 1.5c.3.4.7.7 1 .9.3.2.6.4.9.5.3.1.6.2.8.2.2 0 .5.1.6.1.6 0 1.2-.1 1.7-.2s1-.3 1.4-.6c.4-.2.8-.5 1.1-.8s.6-.6.8-.9c.1-.2.2-.3.3-.2l.4.3c.1.1.1.2 0 .3-.3.5-.7 1-1.1 1.4s-.9.9-1.4 1.2c-.5.4-1.1.6-1.8.9-.7.5-1.4.6-2.2.6zM110.4 148.2v3.1c0 .2 0 .4.1.5.1.1.2.2.4.2h.7c.2 0 .2.1.2.2v.4c0 .2 0 .2-.1.2h-5.6c-.1 0-.2-.1-.2-.3v-.4c0-.1 0-.1.1-.2s.1 0 .2 0h.6c.1 0 .2-.1.4-.2.1-.1.2-.4.2-.8v-7.3-1.3-1.2-1-.7c0-.4-.1-.7-.4-.9-.2-.2-.5-.3-.8-.5l-.4-.1c-.1 0-.1-.1-.1-.1v-.4c0-.1.1-.2.2-.2.2 0 .6-.1.9-.2s.8-.2 1.1-.4c.4-.1.7-.3 1.1-.4.3-.1.6-.2.7-.3.2-.1.4-.2.5-.2.1 0 .2.1.2.4v12.1zM121.6 153c-.1 0-.1.1-.2.1h-.3c-.2 0-.3-.1-.4-.3l-.1-1.2h-.1c-.1.2-.3.4-.5.6-.2.2-.4.3-.7.5-.3.1-.5.2-.8.3-.3.1-.6.1-.9.1h-.6c-.2 0-.4 0-.6-.1-.2-.1-.4-.2-.5-.3-.2-.1-.4-.3-.6-.6-.2-.3-.4-.6-.5-.9-.1-.3-.2-.6-.2-.9 0-.3-.1-.6-.1-1V147v-1.3-1c0-.3-.1-.5-.3-.6-.2-.1-.3-.2-.5-.2s-.3 0-.4-.1c-.1 0-.1 0-.1-.1v-.5c0-.1.1-.2.2-.2H117.1c.2 0 .3.1.2.3 0 .1 0 .4-.1.9s0 1.2 0 2.2v3c0 .3.1.6.1 1 .1.3.2.6.3.8.2.3.3.4.5.4h.6c.2 0 .4-.1.6-.2s.4-.3.6-.5c.1-.1.2-.3.2-.4.1-.2.1-.3.1-.4v-5.4c0-.3-.1-.5-.3-.6-.2-.1-.4-.2-.7-.2-.2 0-.4-.1-.4-.2v-.4-.2H122.9c.2 0 .2.1.2.2v7.4c0 .4.1.6.2.7.1.1.2.1.2.1h.3c.1 0 .3 0 .4-.1.1 0 .2 0 .3.1l.1.4c0 .1 0 .2-.1.2l-2.9.9zM127.8 153.1c-.1.1-.2.1-.3 0l-.3-.1c-.1 0-.1-.1-.1-.2v-.5-.9-1.2-9.9c0-.4 0-.7-.1-.9 0-.2-.1-.4-.2-.6s-.2-.3-.3-.3c-.1-.1-.3-.1-.4-.2l-.3-.1c-.1 0-.2-.1-.2-.1l-.1-.1v-.3c0-.1.1-.2.2-.2l.9-.3.9-.3c.3-.1.6-.2.8-.4.3-.1.5-.2.7-.3.2-.1.3-.2.4-.3.1-.1.2-.1.3-.1s.2 0 .2.1V136.8c0 .3 0 .7-.1 1.2 0 .5 0 1-.1 1.6v4.3c.4-.4.8-.7 1.3-.9s1-.2 1.6-.2c.3 0 .7.1 1 .2.3.1.6.3.9.4.3.2.5.4.7.6.2.2.4.5.5.7.2.3.3.7.5 1.2.1.5.2 1.1.2 1.8 0 .6-.1 1.2-.4 1.9-.3.6-.6 1.2-1 1.7s-1 1-1.6 1.3c-.6.3-1.3.5-1.9.5-.7 0-1.3-.1-1.8-.2-.4-.1-.9-.3-1.2-.4l-.7.6zm2.3-5.2v2.2c0 .5.1.9.2 1.2.2.3.3.5.5.7.2.2.4.3.7.3h.5c.2 0 .3-.1.5-.2s.3-.2.5-.4c.1-.2.3-.4.4-.6.1-.3.2-.5.2-.7s.1-.4.1-.6v-.6-.6c0-.8-.1-1.4-.2-1.9s-.3-.9-.5-1.3c-.2-.3-.5-.5-.7-.7-.3-.1-.6-.2-.8-.2-.2 0-.4 0-.7.1-.2.1-.5.2-.7.3v3z"/></g></svg>