<svg id="Layer_1" xmlns="http://www.w3.org/2000/svg" viewBox="-38 41.2 221.5 139.8"><style>.st0{fill:#d5d9e0}.st1{fill:#bbb}.st2{fill:#fbad3a}.st3{fill:#ed3f40}.st4{fill:#616161}.st5{fill:#fff}</style><path class="st0" d="M-32 178.2c-1.9 0-3.4-1.3-3.4-3v-130c0-1.7 1.5-3 3.4-3h211c1.9 0 3.4 1.3 3.4 3v130c0 1.7-1.5 3-3.4 3H-32z"/><path class="st1" d="M179 43.2c1.2 0 2.2.9 2.2 2v130c0 1.1-1 2-2.2 2H-32c-1.2 0-2.2-.9-2.2-2v-130c0-1.1 1-2 2.2-2h211m0-2H-32c-2.5 0-4.5 1.8-4.5 4v130c0 2.2 2 4 4.5 4h211c2.5 0 4.5-1.8 4.5-4v-130c0-2.2-2-4-4.5-4z"/><circle class="st2" cx="104.8" cy="108.4" r="44.9"/><path class="st3" d="M39.8 63.5C15 63.5-5.1 83.7-5.1 108.4s20.2 44.9 44.9 44.9c24.8 0 44.9-20.2 44.9-44.9S64.6 63.5 39.8 63.5zm32.5 13.8c2.1 2.2 4 4.8 5.8 7.2H66.8c1.5-2.5 3.5-5 5.5-7.2zm-9 13.6h18c1 2.3 1.8 4.9 2.3 7.3H60.9c.6-2.4 1.4-4.8 2.4-7.3zm9 48.6c-2.1-2.2-4.1-4.8-5.8-7.2h11.3c-1.5 2.7-3.3 5-5.5 7.2zm9-13.5h-18c-1-2.3-1.8-4.9-2.3-7.3h22.7c-.6 2.4-1.4 4.8-2.4 7.3zm-21.6-17.6c0-2.8.8-3.7.8-3.7h24.1c.1 1.2.1 2.6.1 3.7 0 1.2 0 2.6-.1 3.7H60.5s-.8-1.4-.8-3.7z"/><path class="st4" d="M21.8 117l1-15.3h-.1c-.2 1.2-.4 2.3-.7 3.2L18.6 117h-2.9l5-18h4.8l-1 14.1h.1L31.3 99h4.9l-4.9 18h-3l3.3-12.2c.3-1 .6-2 1-3.1h-.1L25.1 117h-3.3zM40.9 117l-.1-1.9h-.1c-.7.8-1.3 1.4-1.9 1.7s-1.2.5-2 .5c-.9 0-1.6-.4-1.9-1.1-.3-.8-.3-1.8 0-3.1.4-1.4 1.1-2.5 2-3.2s2.1-1.1 3.6-1.2l1.7-.1.3-1c.3-1.3 0-1.9-1-1.9-.8 0-1.7.3-2.9 1l-.4-2.3c1.5-.9 3-1.3 4.5-1.3 1.4 0 2.3.4 2.8 1.2s.5 2 .1 3.5l-2.5 9.2h-2.2zm-2.1-2.3c.6 0 1.1-.3 1.6-.8s.8-1.3 1.1-2.1l.3-1.2h-1c-.7 0-1.3.3-1.7.6-.4.4-.7 1-1 1.7-.3 1.2 0 1.8.7 1.8zM54.1 113c-.4 1.3-1 2.4-1.9 3.1-.9.8-2.1 1.1-3.6 1.1-1.3 0-2.3-.3-2.9-.8l.8-2.8c.3.3.8.6 1.3.8s1 .3 1.4.3c.5 0 .9-.1 1.2-.4.3-.2.5-.6.6-1s.1-.8-.1-1.1-.6-.7-1.1-1.1c-.8-.6-1.3-1.2-1.5-1.9-.2-.7-.2-1.5 0-2.4.3-1.2.9-2.1 1.9-2.8.9-.7 2-1 3.3-1 1.1 0 2.1.3 3 1l-1.6 2.3c-.7-.5-1.4-.7-2-.7-.4 0-.7.1-1 .3-.3.2-.4.5-.5.8-.1.4-.1.7.1 1 .2.3.5.6 1.1 1.1.7.5 1.1 1 1.3 1.3.2.4.4.8.4 1.2 0 .6-.1 1.1-.2 1.7zM60.5 114.5c.4 0 .9-.1 1.5-.3l-.7 2.6c-.6.4-1.4.6-2.4.6-1.1 0-1.9-.4-2.2-1.1-.4-.7-.3-1.8 0-3.2l1.9-7.1h-1.2l.4-1.5 1.9-1.2 1.5-2.9h2l-.8 3h2.3L64 106h-2.3l-1.9 7.2c-.2.8 0 1.3.7 1.3zM68.2 117.3c-1.6 0-2.7-.6-3.3-1.8-.6-1.2-.6-2.9 0-5.2s1.5-4 2.6-5.3c1.2-1.3 2.5-1.9 4-1.9 1.4 0 2.4.5 2.9 1.6s.5 2.6 0 4.6l-.5 1.7h-6.2c-.3 1.2-.3 2.1 0 2.7s.8.9 1.6.9c1 0 2.1-.3 3.3-1l-.7 2.7c-1 .6-2.3 1-3.7 1zm2.6-11.7c-.4 0-.9.2-1.3.7s-.8 1.3-1.1 2.3h3.1c.2-1 .3-1.8.2-2.3-.1-.5-.4-.7-.9-.7zM84 103.1c.4 0 .7.1 1.1.2l-1.2 3.2c-.2-.1-.5-.1-.8-.1-.7 0-1.4.3-2 .9s-1 1.5-1.3 2.7l-1.8 7h-3.1l3.5-13.7h2.5l-.2 2.1h.1c.6-.9 1.1-1.5 1.6-1.8.5-.3 1-.5 1.6-.5zM93 101.7c-.9 0-1.7.6-2.5 1.7s-1.5 2.7-2 4.7c-1.1 4.2-.6 6.2 1.5 6.2.9 0 1.9-.3 3-.9l-.7 3c-1 .6-2.1.9-3.4.9-1.9 0-3.2-.8-3.8-2.4s-.5-3.9.2-6.8 1.8-5.2 3.3-6.8 3.1-2.4 5-2.4c.6 0 1.2.1 1.7.3s1 .5 1.6.9l-1.7 2.7c-.3-.3-.6-.5-.9-.7-.4-.3-.8-.4-1.3-.4zM101.1 117l-.1-1.9h-.1c-.7.8-1.3 1.4-1.8 1.7-.6.3-1.2.5-2 .5-.9 0-1.6-.4-2-1.1-.4-.8-.4-1.8 0-3.1.4-1.4 1-2.5 1.9-3.2s2.1-1.1 3.6-1.2l1.7-.1.2-1c.3-1.3 0-1.9-1.1-1.9-.8 0-1.7.3-2.9 1l-.5-2.3c1.5-.9 3-1.3 4.5-1.3 1.4 0 2.3.4 2.8 1.2s.6 2 .2 3.5l-2.3 9.2h-2.1zm-2.1-2.3c.6 0 1.1-.3 1.5-.8.5-.5.8-1.3 1-2.1l.3-1.2h-1c-.7 0-1.3.3-1.7.6-.4.4-.7 1-.9 1.7-.2 1.2 0 1.8.8 1.8zM115.2 103.1c.4 0 .7.1 1.1.2l-1.1 3.2c-.2-.1-.5-.1-.8-.1-.7 0-1.4.3-1.9.9-.6.6-1 1.5-1.3 2.7l-1.7 7h-3.1l3.4-13.7h2.5l-.2 2.1h.1c.5-.9 1.1-1.5 1.6-1.8.3-.3.9-.5 1.4-.5zM118.1 117.3c-1.2 0-2-.6-2.4-1.9-.4-1.2-.3-3 .2-5.2s1.3-4 2.3-5.2c1-1.3 2-1.9 3.2-1.9.6 0 1 .2 1.4.5s.6.8.8 1.6h.2c.2-1.2.4-2.1.5-2.6l1.1-4.6h3.1l-4.6 19.1h-2.3l-.1-1.8h-.1c-1 1.3-2.1 2-3.3 2zm1.6-2.8c.6 0 1.1-.3 1.4-.8.4-.6.8-1.6 1.2-3l.1-.4c.4-1.6.5-2.7.4-3.4-.1-.6-.5-1-1.1-1s-1.1.4-1.5 1.1-.8 1.8-1.2 3.2c-.3 1.4-.5 2.5-.4 3.2.2.7.5 1.1 1.1 1.1z"/><g><path class="st5" d="M20.8 116l1-15.3h-.1c-.2 1.2-.4 2.3-.7 3.2L17.6 116h-2.9l5-18h4.8l-1 14.1h.1L30.3 98h4.9l-4.9 18h-3l3.3-12.2c.3-1 .6-2 1-3.1h-.1L24.1 116h-3.3zM39.9 116l-.1-1.9h-.1c-.7.8-1.3 1.4-1.9 1.7s-1.2.5-2 .5c-.9 0-1.6-.4-1.9-1.1-.3-.8-.3-1.8 0-3.1.4-1.4 1.1-2.5 2-3.2s2.1-1.1 3.6-1.2l1.7-.1.3-1c.3-1.3 0-1.9-1-1.9-.8 0-1.7.3-2.9 1l-.4-2.3c1.5-.9 3-1.3 4.5-1.3 1.4 0 2.3.4 2.8 1.2s.5 2 .1 3.5l-2.5 9.2h-2.2zm-2.1-2.3c.6 0 1.1-.3 1.6-.8s.8-1.3 1.1-2.1l.3-1.2h-1c-.7 0-1.3.3-1.7.6-.4.4-.7 1-1 1.7-.3 1.2 0 1.8.7 1.8zM53.1 112c-.4 1.3-1 2.4-1.9 3.1-.9.8-2.1 1.1-3.6 1.1-1.3 0-2.3-.3-2.9-.8l.8-2.8c.3.3.8.6 1.3.8s1 .3 1.4.3c.5 0 .9-.1 1.2-.4.3-.2.5-.6.6-1s.1-.8-.1-1.1-.6-.7-1.1-1.1c-.8-.6-1.3-1.2-1.5-1.9-.2-.7-.2-1.5 0-2.4.3-1.2.9-2.1 1.9-2.8.9-.7 2-1 3.3-1 1.1 0 2.1.3 3 1l-1.6 2.3c-.7-.5-1.4-.7-2-.7-.4 0-.7.1-1 .3-.3.2-.4.5-.5.8-.1.4-.1.7.1 1s.5.6 1.1 1.1c.7.5 1.1 1 1.3 1.3.2.4.4.8.4 1.2 0 .6-.1 1.1-.2 1.7zM59.5 113.5c.4 0 .9-.1 1.5-.3l-.7 2.6c-.6.4-1.4.6-2.4.6-1.1 0-1.9-.4-2.2-1.1-.4-.7-.3-1.8 0-3.2l1.9-7.1h-1.2l.4-1.5 1.9-1.2 1.5-2.9h2l-.8 3h2.3L63 105h-2.3l-1.9 7.2c-.2.8 0 1.3.7 1.3zM67.2 116.3c-1.6 0-2.7-.6-3.3-1.8-.6-1.2-.6-2.9 0-5.2s1.5-4 2.6-5.3c1.2-1.3 2.5-1.9 4-1.9 1.4 0 2.4.5 2.9 1.6s.5 2.6 0 4.6l-.5 1.7h-6.2c-.3 1.2-.3 2.1 0 2.7s.8.9 1.6.9c1 0 2.1-.3 3.3-1l-.7 2.7c-1 .6-2.3 1-3.7 1zm2.6-11.7c-.4 0-.9.2-1.3.7s-.8 1.3-1.1 2.3h3.1c.2-1 .3-1.8.2-2.3-.1-.5-.4-.7-.9-.7zM83 102.1c.4 0 .7.1 1.1.2l-1.2 3.2c-.2-.1-.5-.1-.8-.1-.7 0-1.4.3-2 .9s-1 1.5-1.3 2.7l-1.8 7h-3.1l3.5-13.7h2.5l-.2 2.1h.1c.6-.9 1.1-1.5 1.6-1.8.5-.3 1-.5 1.6-.5zM92 100.7c-.9 0-1.7.6-2.5 1.7s-1.5 2.7-2 4.7c-1.1 4.2-.6 6.2 1.5 6.2.9 0 1.9-.3 3-.9l-.7 3c-1 .6-2.1.9-3.4.9-1.9 0-3.2-.8-3.8-2.4s-.5-3.9.2-6.8 1.8-5.2 3.3-6.8 3.1-2.4 5-2.4c.6 0 1.2.1 1.7.3s1 .5 1.6.9l-1.7 2.7c-.3-.3-.6-.5-.9-.7-.4-.3-.8-.4-1.3-.4zM100.1 116l-.1-1.9h-.1c-.7.8-1.3 1.4-1.8 1.7-.6.3-1.2.5-2 .5-.9 0-1.6-.4-2-1.1-.4-.8-.4-1.8 0-3.1.4-1.4 1-2.5 1.9-3.2s2.1-1.1 3.6-1.2l1.7-.1.2-1c.3-1.3 0-1.9-1.1-1.9-.8 0-1.7.3-2.9 1l-.5-2.3c1.5-.9 3-1.3 4.5-1.3 1.4 0 2.3.4 2.8 1.2s.6 2 .2 3.5l-2.3 9.2h-2.1zm-2.1-2.3c.6 0 1.1-.3 1.5-.8.5-.5.8-1.3 1-2.1l.3-1.2h-1c-.7 0-1.3.3-1.7.6-.4.4-.7 1-.9 1.7-.2 1.2 0 1.8.8 1.8zM114.2 102.1c.4 0 .7.1 1.1.2l-1.1 3.2c-.2-.1-.5-.1-.8-.1-.7 0-1.4.3-1.9.9-.6.6-1 1.5-1.3 2.7l-1.7 7h-3.1l3.4-13.7h2.5l-.2 2.1h.1c.5-.9 1.1-1.5 1.6-1.8.3-.3.9-.5 1.4-.5zM117.1 116.3c-1.2 0-2-.6-2.4-1.9-.4-1.2-.3-3 .2-5.2s1.3-4 2.3-5.2c1-1.3 2-1.9 3.2-1.9.6 0 1 .2 1.4.5s.6.8.8 1.6h.2c.2-1.2.4-2.1.5-2.6l1.1-4.6h3.1l-4.6 19.1h-2.3l-.1-1.8h-.1c-1 1.3-2.1 2-3.3 2zm1.6-2.8c.6 0 1.1-.3 1.4-.8.4-.6.8-1.6 1.2-3l.1-.4c.4-1.6.5-2.7.4-3.4-.1-.6-.5-1-1.1-1s-1.1.4-1.5 1.1-.8 1.8-1.2 3.2c-.3 1.4-.5 2.5-.4 3.2.2.7.5 1.1 1.1 1.1z"/></g></svg>