<svg id="Layer_1" xmlns="http://www.w3.org/2000/svg" viewBox="-38 40 221.5 141"><style>.st0{fill:#fff}.st1{fill:#bcbcbc}.st2{fill:#243f85}.st3{fill:#e8a230}</style><path class="st0" d="M-32 177c-1.9 0-3.4-1.3-3.4-3V44c0-1.7 1.5-3 3.4-3h211c1.9 0 3.4 1.3 3.4 3v130c0 1.7-1.5 3-3.4 3H-32z"/><path class="st1" d="M179 42c1.2 0 2.2.9 2.2 2v130c0 1.1-1 2-2.2 2H-32c-1.2 0-2.2-.9-2.2-2V44c0-1.1 1-2 2.2-2h211m0-2H-32c-2.5 0-4.5 1.8-4.5 4v130c0 2.2 2 4 4.5 4h211c2.5 0 4.5-1.8 4.5-4V44c0-2.2-2-4-4.5-4z"/><path class="st2" d="M183.5 76.4V44c0-2.2-2-4-4.5-4H-32c-2.5 0-4.5 1.8-4.5 4v32.4h220z"/><path class="st3" d="M-36.5 142.3v32.4c0 2.2 2 4 4.5 4h211c2.5 0 4.5-1.8 4.5-4v-32.4h-220z"/><path class="st2" d="M31.4 127.8h10.5l14.3-35.6h-10l-9 23.8-3.8-20s-.5-3.8-6.2-3.8H13.5v1.5s7.2.3 9.8 3.2l8.1 30.9zM60.2 91.9H70l-5.8 35.7h-9.8zM98.2 92.6c-4.1-.8-8.3-1.6-12.4-1.1-4.1.6-8.3 2.7-10.1 6.5-3.5 7.1 2.7 13 8.5 16.1 1.3.7 2.8 1.6 3 3.1.1.9-.3 1.7-1 2.3-2.3 2.2-5.9 1.7-8.8 1.2-1-.2-6.2-.8-5.9-2.6l-1.5 7.5c4.1 1.7 8.5 2.9 13 2.7 4.5-.2 9-2.1 11.6-5.7 2.7-3.6 3-9 .2-12.4-2.5-3-6.9-3.1-9.6-5.8-.7-.7-1.2-1.6-1.1-2.5 0-1 .7-2 1.5-2.6 1.5-1.1 3.6-1.2 5.4-1.1.6 0 6.2.9 6.1 1.6.3-2.3.7-4.6 1.1-7.2z"/><g><path class="st2" d="M122.7 91.9h-6c-5.5 0-6.5 3.3-6.5 3.3L96 127.5h10.2l2.3-5.3H120l.7 5.9h9.8l-7.8-36.2zm-12 23l5.2-13.2 3 13.2h-8.2z"/></g></svg>